<svg preserveAspectRatio="xMidYMid meet" data-bbox="-0.45 3.1 11767.83 4040.87" viewBox="-0.45 3.1 11767.83 4040.87" height="152.727" width="444.767" xmlns="http://www.w3.org/2000/svg" shape-rendering="geometricPrecision" text-rendering="geometricPrecision" image-rendering="optimizeQuality" fill-rule="evenodd" clip-rule="evenodd" data-type="color" role="img">
    <g>
        <path fill="#d91e1a" fill-rule="nonzero" d="M930.22 3865.57l1402.15-816.62H1895.3L891.46 3523l38.76 342.57z" data-color="1"></path>
        <path fill="#a10906" fill-rule="nonzero" d="M2332.37 3048.95v178.4L930.22 4043.97v-214.79l1402.15-780.23z" data-color="2"></path>
        <path fill="#a10906" fill-rule="nonzero" d="M-.45 4043.97h930.67l1448.54-2525.38L2333.1 9.98-.45 4043.97z" data-color="2"></path>
        <path fill="#a10906" fill-rule="nonzero" d="M2326.22 1610L2333.1 9.98l1569.49 2718.38h-932.27L2326.22 1610z" data-color="2"></path>
        <path fill="#a10906" fill-rule="nonzero" d="M2333.1 9.98l-2.08 485.78 1166.6 1531.21L2333.1 9.98z" data-color="2"></path>
        <path fill="#a10906" fill-rule="nonzero" d="M2334.8 9.98l-3.78 485.78-1160.74 1531.21L2334.8 9.98z" data-color="2"></path>
        <path fill="#c92123" fill-rule="nonzero" d="M2060.39 2728.36h265.83v-460.43l-265.83 460.43z" data-color="3"></path>
        <path fill="#a10906" fill-rule="nonzero" d="M2326.22 2267.93l-87.65 460.43h353.46l-265.81-460.43z" data-color="2"></path>
        <path d="M5751.58 1655.11h-941.75v363.17h419.93c-6.61 174.19-165.25 280.34-387.27 280.34-339.84 0-545.92-248.46-545.92-505.87 0-283.84 240.3-508.98 514.03-508.98 135.32 0 282.68 61.44 384.95 157.48l270.24-370.17c-151.65-139.98-421.5-238.74-655.19-242.24-570.02 0-1010.96 440.16-1010.96 965.08 0 521.81 439.77 957.3 1023.41 957.3 521.81 0 943.3-361.22 943.3-917.25 0-58.32-5.83-117.43-14.77-178.86z" fill="#0d3745" fill-rule="nonzero" data-color="4"></path>
        <path d="M6933.24 2755.89c572.75 0 1009.01-414.11 1009.01-961.19 0-552.14-436.26-970.14-1007.85-970.14-571.58 0-1007.85 418-1007.85 970.14 0 547.08 435.49 961.19 1006.69 961.19zm1.16-464.27c-292.01 0-515.59-217.74-515.59-500.42 0-284.24 223.58-503.15 515.59-503.15 292.02 0 515.59 218.91 515.59 503.15 0 282.68-223.57 500.42-515.59 500.42z" fill="#0d3745" fill-rule="nonzero" data-color="4"></path>
        <path d="M9734.77 2709.23l-492.26-737.22c180.03-81.66 318.06-273.35 318.06-501.99 0-329.34-283.85-596.85-680.84-596.85h-696.79l2.33 1836.06h486.43v-797.49l492.26 797.49h570.81zm-1065.4-1397.46h199.86c103.04 0 199.08 70.38 199.08 184.31 0 112.76-94.88 185.86-199.08 184.69l-199.86-1.17v-367.83z" fill="#0d3745" fill-rule="nonzero" data-color="4"></path>
        <path d="M11177.72 2709.23h534.25l-854.26-1859.78h-231.35l-853.1 1859.78h533.09l93.32-215.02h685.9l92.15 215.02zm-624.07-571.19l188.97-435.5 187.8 435.5h-376.77z" fill="#0d3745" fill-rule="nonzero" data-color="4"></path>
        <path fill="#4d4d4d" fill-rule="nonzero" d="M3026.6 3110.59v-84.68h-450.19v766.05h450.19v-85.66h-363.56v-266.7h315.05v-86.63h-315.05v-242.38h363.56z" data-color="5"></path>
        <path d="M3375.39 3802.67c147.47 0 269.3-85.66 269.3-218.04 0-123.29-108.53-176.67-223.71-223.39-98.97-38.12-183.16-65.22-183.16-139.52 0-68.62 70.41-122.81 152.82-122.81 68.95 0 130.76 38.94 155.58 96.69l64.89-43.8c-28.39-75.6-105.78-137.57-219.66-137.57-134.65 0-240.26 87.44-240.26 205.54 0 118.59 104.63 164.83 198.89 201.49 98.15 37.16 207.98 78.69 207.98 164.83 0 75.76-81.76 129.95-182.18 129.95-81.44 0-159.8-43.81-194.36-109.51l-66.35 49.16c36.5 81.76 134 146.98 260.22 146.98z" fill="#4d4d4d" fill-rule="nonzero" data-color="5"></path>
        <path fill="#4d4d4d" fill-rule="nonzero" d="M4233.42 3025.91h-531.47v85.66h222.91v680.39h86.63v-680.39h221.93v-85.66z" data-color="5"></path>
        <path d="M4614.17 3803.64c163.37 0 283.74-130.76 283.74-309.37v-468.36h-86.63v467.87c0 128.33-83.71 222.26-197.11 222.26-113.4 0-197.11-93.45-197.11-222.26v-467.87h-86.63v468.36c0 178.61 120.86 309.37 283.74 309.37z" fill="#4d4d4d" fill-rule="nonzero" data-color="5"></path>
        <path d="M5264.39 3025.1l-213.17.49v766.37h213.17c238.48 0 390.49-148.76 390.49-382.54 0-234.75-152.01-384-390.49-384v-.32zm.97 680.39h-127.67v-594.08h126.38c185.1 0 303.85 116.96 303.85 298.01 0 180.08-118.26 296.07-302.56 296.07z" fill="#4d4d4d" fill-rule="nonzero" data-color="5"></path>
        <path fill="#4d4d4d" fill-rule="nonzero" d="M5776.55 3791.96h86.63v-766.05h-86.63v766.05z" data-color="5"></path>
        <path d="M6377.29 3801.69c217.39 0 393.89-176.83 393.89-392.59 0-217.07-176.5-393.9-393.4-393.9-216.58 0-393.09 176.83-393.09 393.9 0 215.76 176.51 392.59 392.6 392.59zm0-87.6c-168.56 0-305.97-137.25-305.97-305.48 0-168.56 137.41-306.78 305.97-306.78 169.37 0 307.26 138.22 307.26 306.78 0 168.23-137.89 305.48-307.26 305.48z" fill="#4d4d4d" fill-rule="nonzero" data-color="5"></path>
        <path d="M7294.21 3803.64h5.2c169.2 0 305.15-136.43 305.15-306.78l-1.46-470.46-85.98-.49 1.78 469.98c0 120.54-98.79 221.12-220.47 221.12h-3.4c-47.05 0-97.83-17.52-128.33-43.15l-44.61 76.89c46.56 31.96 114.05 52.89 172.12 52.89z" fill="#4d4d4d" fill-rule="nonzero" data-color="5"></path>
        <path d="M8033.98 3803.64c163.37 0 283.74-130.76 283.74-309.37v-468.36h-86.63v467.87c0 128.33-83.71 222.26-197.11 222.26-113.4 0-197.11-93.45-197.11-222.26v-467.87h-86.63v468.36c0 178.61 120.86 309.37 283.74 309.37z" fill="#4d4d4d" fill-rule="nonzero" data-color="5"></path>
        <path d="M9021.31 3791.96l-227.28-308.89c93.12-28.06 160.77-113.56 160.77-212.84 0-134.98-115.67-244.32-257.62-244.32h-226.31l.48 766.05h86.31v-298.99h143.09l213.82 298.99h106.74zM8557.5 3419.8v-308.23h142.6c90.2 0 166.12 68.3 166.12 156.71 0 82.58-74.95 152.01-166.12 152.01l-142.6-.49z" fill="#4d4d4d" fill-rule="nonzero" data-color="5"></path>
        <path d="M9147.85 2963.45l113.08-155.41h-78.36l-99.77 155.41h65.05zm-37.15 828.51h86.63v-766.05h-86.63v766.05z" fill="#4d4d4d" fill-rule="nonzero" data-color="5"></path>
        <path d="M9571.92 3025.1l-213.17.49v766.37h213.17c238.48 0 390.49-148.76 390.49-382.54 0-234.75-152.01-384-390.49-384v-.32zm.97 680.39h-127.67v-594.08h126.38c185.1 0 303.85 116.96 303.85 298.01 0 180.08-118.26 296.07-302.56 296.07z" fill="#4d4d4d" fill-rule="nonzero" data-color="5"></path>
        <path fill="#4d4d4d" fill-rule="nonzero" d="M10084.08 3791.96h86.63v-766.05h-86.63v766.05z" data-color="5"></path>
        <path d="M10685.31 3801.69c113.23 0 199.21-49.15 262.81-112.26l-49.81-69.27c-55.15 54.02-128.81 94.9-215.28 94.9-156.87 0-304.18-132.54-304.18-305.48 0-173.42 148.77-306.77 302.72-306.77 84.04 0 161.1 39.74 216.26 96.2l50.29-67.98c-69.27-69.92-164.83-114.85-263.3-115.83-214.79 0-392.6 179.1-392.6 394.38 0 217.23 180.24 392.11 393.09 392.11z" fill="#4d4d4d" fill-rule="nonzero" data-color="5"></path>
        <path d="M11373.49 3801.69c217.39 0 393.89-176.83 393.89-392.59 0-217.07-176.5-393.9-393.4-393.9-216.58 0-393.09 176.83-393.09 393.9 0 215.76 176.51 392.59 392.6 392.59zm0-87.6c-168.56 0-305.97-137.25-305.97-305.48 0-168.56 137.41-306.78 305.97-306.78 169.37 0 307.26 138.22 307.26 306.78 0 168.23-137.89 305.48-307.26 305.48z" fill="#4d4d4d" fill-rule="nonzero" data-color="5"></path>
        <path fill="#a10906" fill-rule="nonzero" d="M1666 604.12L2028.47 5.8l-836.33-2.7L1666 604.12z" data-color="2"></path>
    </g>
</svg>